<svg width="264" height="207" viewBox="0 0 264 207" fill="none" xmlns="http://www.w3.org/2000/svg">
<path d="M180.037 138.34C210.939 159.054 254.639 140.61 262.402 133.437L171.119 0L1.82612 70.7783C1.77764 73.298 4.87789 81.4567 17.6668 93.934C33.653 109.531 66.7861 126.685 92.4212 121.058C152.119 107.954 139.342 111.062 180.037 138.34Z" fill="#EEF7FE"/>
<path fill-rule="evenodd" clip-rule="evenodd" d="M201.748 95.8527C201.006 95.8527 200.291 95.9394 199.616 96.0994C198.385 92.0461 193.726 89.031 188.164 89.031C182.638 89.031 178.002 92.0091 176.737 96.0243C176.165 95.9127 175.568 95.8527 174.952 95.8527C170.899 95.8527 167.613 98.4214 167.613 101.59C167.613 104.759 170.899 107.327 174.952 107.327H186.37C186.955 107.397 187.554 107.434 188.164 107.434C188.775 107.434 189.374 107.397 189.96 107.327H201.748C205.801 107.327 209.086 104.759 209.086 101.59C209.086 98.4214 205.801 95.8527 201.748 95.8527Z" fill="#DDEEFB"/>
<path fill-rule="evenodd" clip-rule="evenodd" d="M150.597 80.0178C150.36 80.0178 150.132 80.0455 149.916 80.0966C149.523 78.8025 148.036 77.8399 146.26 77.8399C144.495 77.8399 143.015 78.7907 142.611 80.0726C142.429 80.037 142.238 80.0178 142.041 80.0178C140.747 80.0178 139.698 80.8379 139.698 81.8495C139.698 82.8612 140.747 83.6813 142.041 83.6813H145.687C145.874 83.7036 146.065 83.7152 146.26 83.7152C146.455 83.7152 146.646 83.7036 146.833 83.6813H150.597C151.891 83.6813 152.94 82.8612 152.94 81.8495C152.94 80.8379 151.891 80.0178 150.597 80.0178Z" fill="#DDEEFB"/>
<path fill-rule="evenodd" clip-rule="evenodd" d="M75.0835 103.799C74.8468 103.799 74.6183 103.827 74.4029 103.878C74.01 102.584 72.5223 101.621 70.7466 101.621C68.9821 101.621 67.5019 102.572 67.0979 103.854C66.9155 103.818 66.7247 103.799 66.5282 103.799C65.2341 103.799 64.1849 104.619 64.1849 105.631C64.1849 106.642 65.2341 107.462 66.5282 107.462H70.1736C70.3604 107.485 70.5518 107.496 70.7466 107.496C70.9415 107.496 71.1329 107.485 71.3198 107.462H75.0835C76.3775 107.462 77.4266 106.642 77.4266 105.631C77.4266 104.619 76.3775 103.799 75.0835 103.799Z" fill="#DDEEFB"/>
<path fill-rule="evenodd" clip-rule="evenodd" d="M90.8303 71.0649C90.5936 71.0649 90.3652 71.0926 90.1498 71.1437C89.7568 69.8496 88.2691 68.887 86.4935 68.887C84.729 68.887 83.2487 69.8378 82.8448 71.1197C82.6623 71.0841 82.4716 71.0649 82.275 71.0649C80.9809 71.0649 79.9318 71.885 79.9318 72.8966C79.9318 73.9083 80.9809 74.7284 82.275 74.7284H85.9204C86.1073 74.7507 86.2987 74.7623 86.4935 74.7623C86.6884 74.7623 86.8797 74.7507 87.0666 74.7284H90.8303C92.1244 74.7284 93.1734 73.9083 93.1734 72.8966C93.1734 71.885 92.1244 71.0649 90.8303 71.0649Z" fill="#DDEEFB"/>
</svg>
