<svg width="148" height="148" viewBox="0 0 148 148" fill="none" xmlns="http://www.w3.org/2000/svg">
<path d="M74 148C59.3642 148 45.057 143.66 32.8878 135.529C20.7186 127.398 11.2338 115.84 5.63291 102.319C0.0320279 88.7968 -1.43342 73.9179 1.42189 59.5633C4.2772 45.2087 11.325 32.0232 21.6741 21.6741L51.105 51.105C46.5768 55.6332 43.4931 61.4025 42.2438 67.6833C40.9944 73.9641 41.6356 80.4743 44.0863 86.3907C46.5369 92.307 50.6869 97.3639 56.0115 100.922C61.3361 104.479 67.5962 106.378 74 106.378V148Z" fill="#567DF4"/>
<path d="M123.988 128.563C110.358 141.051 92.5471 147.985 74.0612 148L74.0268 106.378C82.1152 106.372 89.9082 103.338 95.8722 97.874L123.988 128.563Z" fill="#4CE364"/>
<path d="M21.6741 21.6741C31.3429 12.0053 43.5017 5.20447 56.801 2.02642C70.1004 -1.15162 84.0202 -0.582622 97.0159 3.67027C110.011 7.92317 121.575 15.6936 130.422 26.1194C139.269 36.5451 145.055 49.2183 147.137 62.7327L106.001 69.07C105.09 63.1569 102.558 57.6118 98.6872 53.05C94.8161 48.4883 89.7567 45.0884 84.0705 43.2275C78.3843 41.3667 72.2937 41.1177 66.4747 42.5083C60.6556 43.8988 55.3356 46.8745 51.105 51.105L21.6741 21.6741Z" fill="#22215B"/>
<path d="M147.127 62.6652C149.004 74.7778 147.844 87.1671 143.749 98.7203C139.654 110.273 132.754 120.628 123.668 128.855L95.7319 98.0017C99.7075 94.4021 102.727 89.8713 104.518 84.8162C106.31 79.7612 106.818 74.3403 105.996 69.0405L147.127 62.6652Z" fill="#FFC700"/>
</svg>
