<svg width="19" height="17" viewBox="0 0 19 17" fill="none" xmlns="http://www.w3.org/2000/svg">
<path d="M19 2.63662C18.2871 2.94735 17.5313 3.14961 16.7581 3.23662C17.5753 2.76209 18.1843 1.99962 18.4651 1.09962C17.7021 1.55268 16.8657 1.86976 15.9934 2.03662C15.6356 1.6574 15.2051 1.35359 14.7274 1.14316C14.2496 0.932743 13.7344 0.819994 13.2121 0.811602C12.6899 0.80321 12.1712 0.899344 11.6869 1.09431C11.2026 1.28927 10.7625 1.57909 10.3926 1.94662C10.0247 2.30239 9.73383 2.7295 9.53793 3.20161C9.34203 3.67371 9.24528 4.18081 9.25363 4.69162C9.25602 4.99062 9.28966 5.28856 9.35398 5.58062C7.79171 5.50692 6.26389 5.09758 4.87519 4.38062C3.50452 3.68395 2.29515 2.70944 1.32467 1.51962C0.987789 2.09593 0.805309 2.7489 0.794765 3.41577C0.78422 4.08264 0.945965 4.74101 1.26446 5.32762C1.56712 5.88409 2.00195 6.35823 2.53092 6.70862C1.91306 6.68699 1.30942 6.51792 0.770718 6.21562V6.26362C0.758305 7.16606 1.07293 8.04269 1.65684 8.73262C2.22212 9.42638 3.0137 9.90058 3.89373 10.0726C3.55928 10.1602 3.21492 10.2046 2.86912 10.2046C2.62277 10.2028 2.37689 10.1828 2.13352 10.1446C2.38371 10.915 2.869 11.5884 3.52168 12.0708C4.17436 12.5532 4.96188 12.8206 5.77436 12.8356C4.40215 13.9262 2.69444 14.5118 0.939312 14.4936C0.625568 14.4957 0.311959 14.48 0 14.4466C1.77873 15.5992 3.8584 16.2051 5.98009 16.1886C7.30639 16.1981 8.62414 15.9764 9.87382 15.5336C11.009 15.1419 12.0632 14.5476 12.9848 13.7796C13.8436 13.0476 14.5922 12.1962 15.2076 11.2516C15.816 10.3299 16.2853 9.32416 16.6005 8.26662C16.9025 7.25553 17.0572 6.20651 17.0602 5.15162C17.0602 4.92762 17.0561 4.76095 17.0481 4.65162C17.8109 4.09756 18.4713 3.41577 19 2.63662Z" fill="#222228"/>
</svg>
